<!-- Generator: Adobe Illustrator 25.2.3, SVG Export Plug-In  -->
<svg version="1.1" xmlns="http://www.w3.org/2000/svg" xmlns:xlink="http://www.w3.org/1999/xlink" x="0px" y="0px" width="33.78px"
	 height="315.25px" viewBox="0 0 33.78 315.25" style="overflow:visible;enable-background:new 0 0 33.78 315.25;"
	 xml:space="preserve">
<style type="text/css">
	.st0{fill:#347281;}
</style>
<defs>
</defs>
<path class="st0" d="M21.23,1.32c-1.12,12.47-3.89,25.05-3.06,37.39c2.73,40.53,6.34,81.02,10.43,121.45
c3.65,36.11,9.35,72.32,0.39,108.17c-3.43,13.72-11.26,26.4-17.63,39.29c-1.32,2.68-5.03,4.19-9.42,7.63
c4.11-17.48,8.35-31.89,10.77-46.6c4.92-29.91,1.11-59.7-2.46-89.52C6.14,144.75,1.98,110.29,0.16,75.75
C-1.08,52.04,5,28.83,14.33,6.8c1.05-2.47,3.04-4.54,4.6-6.8C19.7,0.44,20.46,0.88,21.23,1.32z"/>
</svg>
