<!-- Generator: Adobe Illustrator 25.2.3, SVG Export Plug-In  -->
<svg version="1.1" xmlns="http://www.w3.org/2000/svg" xmlns:xlink="http://www.w3.org/1999/xlink" x="0px" y="0px"
	 width="315.98px" height="342px" viewBox="0 0 315.98 342" style="overflow:visible;enable-background:new 0 0 315.98 342;"
	 xml:space="preserve">
<style type="text/css">
	.st0{fill:#347281;}
	.st1{fill:#56A996;}
</style>
<defs>
</defs>
<path class="st0" d="M132.22,28.07c-1.12,12.47-3.89,25.05-3.06,37.39c2.73,40.53,6.34,81.02,10.43,121.45
	c3.65,36.11,9.35,72.32,0.39,108.17c-3.43,13.72-11.26,26.4-17.63,39.29c-1.32,2.68-5.03,4.19-9.42,7.63
	c4.11-17.48,8.35-31.89,10.77-46.6c4.92-29.91,1.11-59.7-2.46-89.52c-4.12-34.38-8.28-68.84-10.09-103.38
	c-1.25-23.7,4.84-46.92,14.17-68.95c1.05-2.47,3.04-4.54,4.6-6.8C130.69,27.19,131.45,27.63,132.22,28.07z"/>
<path class="st1" d="M52.95,157.28c-7.49-3.7-14.09-6.63-20.38-10.13c-14.22-7.9-25.66-18.46-30.63-34.55
	c-5.61-18.17,1.21-36.76,16.73-46.25c14.89-9.11,32.92-6.78,46.82,6.2c1.09,1.01,1.38,2.87,2.05,4.33c1.05-0.74,2.1-1.49,3.15-2.23
	c-2.66-6.07-5.39-12.12-7.98-18.22c-5.1-12.04-9.37-24.32-5.67-37.6C59.65,9.53,65.18,2.84,78.48,0
	C58.34,19.73,66.21,39.11,72.8,58.55c4.94,14.58,11.17,28.98,8.52,45.01c-0.24,1.43-0.81,2.81-1.87,6.36
	c-3.13-6.41-5.18-11.13-7.67-15.6C65.06,82.2,55.38,74.33,40.89,74.17c-18.57-0.2-31.6,16.78-27.05,34.81
	c3.42,13.57,12.61,22.31,24,29.19c10.8,6.53,22.03,12.38,32.61,19.24c8.9,5.76,16.09,13.36,20.06,23.25
	c-1.13,1.08-2.25,2.15-3.38,3.23c-3.07-4-5.59-8.65-9.32-11.88c-9.44-8.17-21.74-8.31-30.36-1.1c-8.68,7.25-11.08,19.56-4.15,29.98
	c4.04,6.08,10.05,11.31,16.19,15.41c8.09,5.4,17.72,8.54,25.67,14.11c7.6,5.31,14.92,11.72,20.41,19.1
	c3.64,4.89,4.35,12.26,5.36,18.68c0.39,2.46-2.05,5.37-4.67,8.22c-0.4-25.62-18.9-33.18-37.27-41.92
	c-11.15-5.31-22.87-11.75-30.94-20.73C19.71,193.35,26.43,168.73,52.95,157.28z"/>
<path class="st1" d="M313.71,71.02c-8.3,0.05-16.59,0.06-24.89,0c-1.9-0.01-2.52,0.74-2.5,2.57c0.07,4.69,0.22,9.39-0.06,14.06
	c-0.2,3.3,0.8,4.69,4.17,4.15c3.06-0.49,4.42,0.4,4.41,3.99c-0.13,44.84-0.08,89.68-0.09,134.53c0,4.03-0.26,4.23-4.4,3.67
	c-14.96-2.06-29.97-2.12-44.94-0.52c-19.6,2.09-37.99,8.07-54.91,18.32c-15.06,9.13-27.55,21.13-38.49,34.81
	c-1.33,1.66-3.23,3.14-3.49,5.49c0.4,0.37,0.8,0.75,1.2,1.12c1.96-2.4,3.79-4.91,5.92-7.15c2.14-2.26,4.46-4.39,6.88-6.35
	c27.14-21.99,58.63-31.66,93.12-32.49c18.96-0.46,37.61,2.23,56.05,6.53c4.23,0.98,4.23,0.97,4.23-3.24c0-57.71,0-115.41,0-173.12
	c0-1.32-0.05-2.65,0.02-3.97C316.06,71.78,315.47,71.01,313.71,71.02z"/>
<g>
	<path class="st0" d="M279.75,90.84c0-19.23-0.05-38.47,0.04-57.7c0.01-2.55-0.66-3.54-3.28-3c-2.59,0.54-5.23,0.77-7.82,1.3
		c-37.44,7.63-68.3,26.62-94.16,54.49c2.34,0.09,2.35,0.1,4.61-1.31c8.88-5.53,18-10.61,27.57-14.86
		c14.91-6.63,30.24-11.75,46.67-12.79c4.99-0.32,5-0.22,5,4.68c0,39.55,0,79.1,0,118.65c0,8.17,0,8.17-7.89,9.83
		c-1.06,0.22-2.1,0.49-3.16,0.71c-26.93,5.53-51.9,15.63-74.42,31.57c-18.9,13.38-34.49,30.19-49.69,47.42
		c-9.78,11.08-19.49,22.23-30.25,32.39c-14.65,13.83-31.18,24.79-49.78,32.57c-0.36,0.66-0.39,2.12-1.63,0.67
		c-0.44,0.14-0.88,0.29-1.32,0.43c-0.36,0.59-0.91,0.66-1.53,0.59c-1.15,0.39-2.3,0.79-3.46,1.18c-0.16,1.34,0.66,1.77,1.79,1.9
		c3.12,0.19,6.06-0.65,8.98-1.58c0.62-1.03,1.57-0.72,2.47-0.61c0.41-0.1,0.82-0.2,1.22-0.31c6.31-2.43,12.57-4.98,19.07-6.88
		c0.59-0.24,1.17-0.48,1.75-0.72c0.7-1.19,1.81-1.55,3.11-1.51c1.36-0.72,2.72-1.43,4.08-2.15c0.13-1.66,1.26-1.6,2.45-1.44
		c1.39-0.12,2.4-1.04,3.53-1.71c18.39-10.94,34.24-25.14,50.17-39.23c15.48-13.68,30.83-27.53,48.26-38.8
		c16.01-10.35,33.13-17.87,51.96-21.43c13.7-2.6,27.52-2.28,41.34-2.12c3.44,0.04,4.42-0.86,4.41-4.36
		C279.7,174.75,279.75,132.79,279.75,90.84z"/>
	<path class="st0" d="M167.34,144.62c17.94-14.21,38.01-24.1,60.13-29.93c5.7-1.5,11.43-2.77,17.27-3.52
		c1.87-0.24,2.49-1.11,2.28-2.86c-0.24-1.98-1.66-1.26-2.75-1.21c-0.84,0.04-1.68,0.14-2.5,0.28c-27.45,4.74-52.4,15.24-74.66,32.09
		c-2.46,1.87-3.35,3.82-2.5,6.7C165.92,146.32,166.53,145.26,167.34,144.62z"/>
	<path class="st0" d="M247.06,136.74c-0.18-1.86-1.38-1.54-2.63-1.36c-22.25,3.28-42.99,10.78-62.31,22.26
		c-1.33,0.79-2.42,1.59-2.2,3.34c0.09,0.67-0.32,1.55,0.43,1.97c0.9,0.51,1.57-0.32,2.25-0.73c7.3-4.41,14.81-8.41,22.71-11.65
		c12.71-5.22,25.77-9.17,39.41-11.02C246.59,139.29,247.23,138.49,247.06,136.74z"/>
	<path class="st0" d="M196.3,183.13c15.28-7.6,31.33-12.78,48.25-15.11c1.75-0.24,2.61-0.85,2.48-2.71c-0.18-2.59-1.99-1.56-3.2-1.4
		c-16.93,2.32-32.95,7.59-48.35,14.89c-1.33,0.63-2.26,1.35-2.03,2.87C193.2,184.72,194.79,183.88,196.3,183.13z"/>
	<path class="st0" d="M196.05,98.07c15.4-7.6,31.58-12.78,48.58-15.31c1.76-0.26,2.63-0.87,2.43-2.72c-0.24-2.17-1.8-1.56-3-1.39
		c-16.99,2.53-33.17,7.72-48.68,15.07c-1.36,0.64-2.11,1.53-1.9,3.03C193.3,99.32,194.43,98.87,196.05,98.07z"/>
</g>
</svg>
